# xmcd
#
# Track frame offsets:
#	150
#	23270
#	41640
#	63547
#	81060
#	110015
#	127970
#	150545
#	179742
#	200887
#	227775
#
# Disc length: 3273 seconds
#
# Revision: 0
# Processed by: cddbd v1.5.2PL0 Copyright (c) Steve Scherf et al.
# Submitted via: dBpowerAMP V4.0
#
DISCID=910cc70b
DTITLE=L.V. Banks - Let Me Be Your Teddy Bear
DYEAR=1995
DGENRE=Blues
TTITLE0=01 - That's The Way Our Love Goes
TTITLE1=02 - Teddy Bear
TTITLE2=03 - Born In The City
TTITLE3=04 - New Kind Of Love
TTITLE4=05 - Blue Guitar
TTITLE5=06 - Down In Mississippi
TTITLE6=07 - Tail Dragger
TTITLE7=08 - I'm a Man
TTITLE8=09 - She's Fine
TTITLE9=10 - Lady In Red
TTITLE10=11 - Christmas Song
EXTD=
EXTT0=
EXTT1=
EXTT2=
EXTT3=
EXTT4=
EXTT5=
EXTT6=
EXTT7=
EXTT8=
EXTT9=
EXTT10=
PLAYORDER=
